<svg width="181" height="27" viewBox="0 0 181 27" fill="none" xmlns="http://www.w3.org/2000/svg">
<path d="M38.7251 18.288C38.7251 17.064 39.0076 15.966 39.5728 14.994C40.15 14.022 40.9256 13.266 41.8996 12.726C42.8856 12.174 43.9618 11.898 45.1282 11.898C46.4629 11.898 47.6473 12.228 48.6814 12.888C49.7276 13.536 50.4851 14.46 50.9541 15.66H48.483C48.1584 15 47.7075 14.508 47.1303 14.184C46.5531 13.86 45.8857 13.698 45.1282 13.698C44.2985 13.698 43.559 13.884 42.9097 14.256C42.2603 14.6279 41.7492 15.162 41.3765 15.858C41.0158 16.5539 40.8354 17.3639 40.8354 18.288C40.8354 19.212 41.0158 20.022 41.3765 20.718C41.7492 21.4139 42.2603 21.9539 42.9097 22.338C43.559 22.7099 44.2985 22.896 45.1282 22.896C45.8857 22.896 46.5531 22.734 47.1303 22.41C47.7075 22.086 48.1584 21.5939 48.483 20.934H50.9541C50.4851 22.1339 49.7276 23.058 48.6814 23.706C47.6473 24.354 46.4629 24.678 45.1282 24.678C43.9497 24.678 42.8736 24.408 41.8996 23.868C40.9256 23.316 40.15 22.554 39.5728 21.582C39.0076 20.61 38.7251 19.512 38.7251 18.288ZM55.4171 16.092C55.7177 15.588 56.1145 15.198 56.6076 14.922C57.1126 14.634 57.7078 14.49 58.3932 14.49V16.614H57.8702C57.0644 16.614 56.4512 16.818 56.0304 17.226C55.6215 17.6339 55.4171 18.342 55.4171 19.35V24.57H53.3609V14.652H55.4171V16.092ZM69.3918 19.368C69.3918 19.7399 69.3678 20.076 69.3197 20.376H61.7262C61.7863 21.168 62.081 21.804 62.61 22.284C63.1391 22.7639 63.7884 23.004 64.558 23.004C65.6642 23.004 66.4459 22.542 66.9027 21.618H69.1213C68.8207 22.5299 68.2736 23.28 67.4799 23.868C66.6984 24.444 65.7244 24.732 64.558 24.732C63.608 24.732 62.7543 24.522 61.9967 24.102C61.2513 23.67 60.662 23.0699 60.2291 22.302C59.8083 21.5219 59.5978 20.6219 59.5978 19.602C59.5978 18.582 59.8023 17.6879 60.2111 16.92C60.632 16.1399 61.2152 15.54 61.9606 15.12C62.7182 14.6999 63.584 14.49 64.558 14.49C65.4959 14.49 66.3316 14.694 67.0651 15.102C67.7986 15.5099 68.3698 16.0859 68.7786 16.83C69.1875 17.5619 69.3918 18.4079 69.3918 19.368ZM67.2455 18.72C67.2335 17.964 66.9629 17.358 66.4338 16.902C65.9048 16.4459 65.2494 16.218 64.4678 16.218C63.7584 16.218 63.1511 16.4459 62.646 16.902C62.141 17.3459 61.8404 17.952 61.7442 18.72H67.2455ZM70.73 19.566C70.73 18.5699 70.9343 17.6879 71.3432 16.92C71.764 16.152 72.3292 15.558 73.0387 15.138C73.7602 14.706 74.5538 14.49 75.4196 14.49C76.2011 14.49 76.8806 14.6459 77.4577 14.958C78.0469 15.2579 78.5159 15.6359 78.8646 16.092V14.652H80.9389V24.57H78.8646V23.094C78.5159 23.562 78.0409 23.9519 77.4397 24.264C76.8384 24.576 76.153 24.732 75.3835 24.732C74.5297 24.732 73.7481 24.516 73.0387 24.084C72.3292 23.64 71.764 23.028 71.3432 22.248C70.9343 21.456 70.73 20.562 70.73 19.566ZM78.8646 19.602C78.8646 18.918 78.7203 18.324 78.4317 17.82C78.1551 17.316 77.7884 16.9319 77.3315 16.668C76.8745 16.404 76.3815 16.272 75.8525 16.272C75.3234 16.272 74.8303 16.404 74.3734 16.668C73.9165 16.92 73.5437 17.298 73.2552 17.802C72.9786 18.294 72.8403 18.882 72.8403 19.566C72.8403 20.25 72.9786 20.85 73.2552 21.366C73.5437 21.8819 73.9165 22.2779 74.3734 22.554C74.8424 22.8179 75.3353 22.95 75.8525 22.95C76.3815 22.95 76.8745 22.8179 77.3315 22.554C77.7884 22.29 78.1551 21.906 78.4317 21.402C78.7203 20.886 78.8646 20.286 78.8646 19.602ZM86.0385 16.326V21.816C86.0385 22.1879 86.1227 22.4579 86.291 22.626C86.4714 22.7819 86.772 22.86 87.1929 22.86H88.4555V24.57H86.8321C85.9062 24.57 85.1967 24.354 84.7038 23.922C84.2107 23.49 83.9643 22.788 83.9643 21.816V16.326H82.7919V14.652H83.9643V12.186H86.0385V14.652H88.4555V16.326H86.0385ZM91.3964 13.338C91.0239 13.338 90.711 13.212 90.4585 12.96C90.2059 12.708 90.08 12.3959 90.08 12.024C90.08 11.652 90.2059 11.34 90.4585 11.088C90.711 10.836 91.0239 10.71 91.3964 10.71C91.7571 10.71 92.0637 10.836 92.3162 11.088C92.5688 11.34 92.695 11.652 92.695 12.024C92.695 12.3959 92.5688 12.708 92.3162 12.96C92.0637 13.212 91.7571 13.338 91.3964 13.338ZM92.4064 14.652V24.57H90.3502V14.652H92.4064ZM98.9484 22.734L101.762 14.652H103.945L100.157 24.57H97.7039L93.9342 14.652H96.1347L98.9484 22.734ZM114.607 19.368C114.607 19.7399 114.584 20.076 114.535 20.376H106.941C107.002 21.168 107.297 21.804 107.825 22.284C108.355 22.7639 109.004 23.004 109.773 23.004C110.88 23.004 111.662 22.542 112.118 21.618H114.337C114.036 22.5299 113.489 23.28 112.695 23.868C111.914 24.444 110.94 24.732 109.773 24.732C108.824 24.732 107.97 24.522 107.212 24.102C106.467 23.67 105.877 23.0699 105.444 22.302C105.024 21.5219 104.813 20.6219 104.813 19.602C104.813 18.582 105.018 17.6879 105.426 16.92C105.848 16.1399 106.431 15.54 107.176 15.12C107.933 14.6999 108.799 14.49 109.773 14.49C110.711 14.49 111.547 14.694 112.28 15.102C113.014 15.5099 113.585 16.0859 113.994 16.83C114.403 17.5619 114.607 18.4079 114.607 19.368ZM112.461 18.72C112.449 17.964 112.178 17.358 111.649 16.902C111.121 16.4459 110.465 16.218 109.683 16.218C108.974 16.218 108.366 16.4459 107.861 16.902C107.356 17.3459 107.056 17.952 106.959 18.72H112.461ZM125.446 24.696C124.605 24.696 123.847 24.552 123.174 24.264C122.501 23.964 121.972 23.544 121.586 23.004C121.202 22.464 121.009 21.834 121.009 21.114H123.21C123.258 21.654 123.469 22.0979 123.841 22.446C124.226 22.794 124.761 22.968 125.446 22.968C126.156 22.968 126.709 22.7999 127.106 22.464C127.503 22.1159 127.701 21.672 127.701 21.132C127.701 20.7119 127.575 20.3699 127.322 20.106C127.082 19.842 126.776 19.638 126.402 19.494C126.042 19.35 125.537 19.194 124.887 19.026C124.07 18.81 123.403 18.594 122.885 18.378C122.38 18.15 121.947 17.802 121.586 17.334C121.226 16.866 121.045 16.242 121.045 15.462C121.045 14.742 121.226 14.112 121.586 13.572C121.947 13.032 122.452 12.618 123.102 12.33C123.751 12.042 124.503 11.898 125.356 11.898C126.571 11.898 127.563 12.204 128.332 12.816C129.114 13.416 129.547 14.244 129.631 15.3H127.358C127.322 14.8439 127.106 14.454 126.709 14.13C126.312 13.806 125.789 13.644 125.14 13.644C124.551 13.644 124.07 13.794 123.697 14.094C123.324 14.3939 123.138 14.8259 123.138 15.39C123.138 15.774 123.252 16.092 123.48 16.344C123.721 16.584 124.021 16.776 124.382 16.92C124.743 17.064 125.236 17.2199 125.861 17.388C126.691 17.6159 127.365 17.844 127.881 18.072C128.411 18.2999 128.855 18.654 129.216 19.134C129.589 19.602 129.775 20.232 129.775 21.024C129.775 21.66 129.601 22.2599 129.252 22.824C128.916 23.388 128.417 23.8439 127.755 24.192C127.106 24.5279 126.336 24.696 125.446 24.696ZM134.601 16.326V21.816C134.601 22.1879 134.685 22.4579 134.854 22.626C135.034 22.7819 135.334 22.86 135.755 22.86H137.018V24.57H135.395C134.468 24.57 133.759 24.354 133.266 23.922C132.773 23.49 132.527 22.788 132.527 21.816V16.326H131.354V14.652H132.527V12.186H134.601V14.652H137.018V16.326H134.601ZM147.913 14.652V24.57H145.857V23.4C145.532 23.8079 145.106 24.1319 144.576 24.372C144.06 24.5999 143.506 24.714 142.917 24.714C142.135 24.714 141.432 24.552 140.807 24.228C140.193 23.904 139.706 23.424 139.346 22.788C138.997 22.1519 138.823 21.384 138.823 20.484V14.652H140.861V20.178C140.861 21.066 141.083 21.75 141.528 22.23C141.973 22.698 142.58 22.932 143.35 22.932C144.119 22.932 144.727 22.698 145.171 22.23C145.629 21.75 145.857 21.066 145.857 20.178V14.652H147.913ZM149.94 19.566C149.94 18.5699 150.145 17.6879 150.554 16.92C150.975 16.152 151.54 15.558 152.249 15.138C152.971 14.706 153.771 14.49 154.648 14.49C155.297 14.49 155.935 14.634 156.56 14.922C157.198 15.198 157.703 15.57 158.075 16.038V11.25H160.149V24.57H158.075V23.076C157.739 23.5559 157.27 23.9519 156.668 24.264C156.079 24.576 155.4 24.732 154.63 24.732C153.764 24.732 152.971 24.516 152.249 24.084C151.54 23.64 150.975 23.028 150.554 22.248C150.145 21.456 149.94 20.562 149.94 19.566ZM158.075 19.602C158.075 18.918 157.931 18.324 157.642 17.82C157.366 17.316 156.999 16.9319 156.542 16.668C156.086 16.404 155.592 16.272 155.063 16.272C154.534 16.272 154.041 16.404 153.584 16.668C153.128 16.92 152.754 17.298 152.466 17.802C152.19 18.294 152.051 18.882 152.051 19.566C152.051 20.25 152.19 20.85 152.466 21.366C152.754 21.8819 153.128 22.2779 153.584 22.554C154.053 22.8179 154.546 22.95 155.063 22.95C155.592 22.95 156.086 22.8179 156.542 22.554C156.999 22.29 157.366 21.906 157.642 21.402C157.931 20.886 158.075 20.286 158.075 19.602ZM163.896 13.338C163.524 13.338 163.211 13.212 162.959 12.96C162.706 12.708 162.58 12.3959 162.58 12.024C162.58 11.652 162.706 11.34 162.959 11.088C163.211 10.836 163.524 10.71 163.896 10.71C164.257 10.71 164.564 10.836 164.816 11.088C165.069 11.34 165.195 11.652 165.195 12.024C165.195 12.3959 165.069 12.708 164.816 12.96C164.564 13.212 164.257 13.338 163.896 13.338ZM164.907 14.652V24.57H162.85V14.652H164.907ZM171.917 24.732C170.979 24.732 170.131 24.522 169.373 24.102C168.616 23.67 168.021 23.0699 167.588 22.302C167.155 21.5219 166.938 20.6219 166.938 19.602C166.938 18.594 167.161 17.7 167.606 16.92C168.051 16.1399 168.658 15.54 169.427 15.12C170.198 14.6999 171.057 14.49 172.007 14.49C172.957 14.49 173.817 14.6999 174.586 15.12C175.356 15.54 175.963 16.1399 176.408 16.92C176.853 17.7 177.075 18.594 177.075 19.602C177.075 20.61 176.847 21.5039 176.39 22.284C175.933 23.064 175.307 23.67 174.514 24.102C173.733 24.522 172.867 24.732 171.917 24.732ZM171.917 22.95C172.446 22.95 172.939 22.824 173.396 22.572C173.865 22.32 174.243 21.942 174.532 21.438C174.82 20.934 174.965 20.322 174.965 19.602C174.965 18.882 174.827 18.276 174.55 17.784C174.274 17.28 173.907 16.902 173.45 16.65C172.993 16.398 172.5 16.272 171.971 16.272C171.442 16.272 170.949 16.398 170.492 16.65C170.047 16.902 169.693 17.28 169.427 17.784C169.163 18.276 169.031 18.882 169.031 19.602C169.031 20.67 169.301 21.498 169.842 22.086C170.396 22.662 171.087 22.95 171.917 22.95Z" fill="black"/>
<path d="M13.0361 24.5698L8.61708 16.3798H7.95423V24.5698H1.76758V2.3623H11.521C13.3096 2.3623 14.8247 2.6773 16.0663 3.3073C17.3079 3.91631 18.2443 4.76681 18.8756 5.8588C19.5068 6.9298 19.8225 8.13731 19.8225 9.4813C19.8225 10.9933 19.4016 12.3268 18.5599 13.4818C17.7392 14.6158 16.5292 15.4243 14.93 15.9073L19.9487 24.5698H13.0361ZM7.95423 12.1588H11.016C11.8577 12.1588 12.489 11.9593 12.9099 11.5603C13.3307 11.1613 13.5411 10.5838 13.5411 9.8278C13.5411 9.11383 13.3202 8.5573 12.8783 8.15831C12.4574 7.7383 11.8367 7.52831 11.016 7.52831H7.95423V12.1588Z" fill="black"/>
<path d="M38.6579 5.8405C38.7356 5.76409 38.7793 5.66045 38.7793 5.55239V3.10765C38.7793 2.99959 38.7356 2.89595 38.6579 2.81954C38.58 2.74313 38.4745 2.7002 38.3645 2.7002H35.0457C34.9357 2.7002 34.8302 2.74313 34.7523 2.81954C34.6746 2.89595 34.6309 2.99959 34.6309 3.10765V6.42556C34.6309 6.45418 34.6395 6.48213 34.6557 6.50592C34.6719 6.5297 34.6949 6.54824 34.7218 6.55919C34.7486 6.57013 34.7783 6.57299 34.8069 6.56741C34.8354 6.56183 34.8616 6.54806 34.8823 6.52784L35.339 6.07923C35.4168 6.00281 35.5223 5.95987 35.6323 5.95984H38.3645C38.4745 5.95984 38.58 5.91691 38.6579 5.8405Z" stroke="black" stroke-width="0.5" stroke-linecap="round" stroke-linejoin="round"/>
<path d="M35.3521 3.86992L35.7579 3.41992M35.7579 3.41992L36.1637 3.86992M35.7579 3.41992V4.91992C35.7579 4.99948 35.7864 5.0758 35.8372 5.13205C35.8878 5.18831 35.9566 5.21992 36.0284 5.21992H36.8401M38.0576 4.76992L37.6518 5.21992M37.6518 5.21992L37.2459 4.76992M37.6518 5.21992V3.71992C37.6518 3.64036 37.6233 3.56405 37.5725 3.50779C37.5218 3.45153 37.453 3.41992 37.3812 3.41992H36.5695" stroke="black" stroke-width="0.3" stroke-linecap="round" stroke-linejoin="round"/>
<path d="M33.4586 2.33984H27.2358V24.8398H33.4586V2.33984Z" fill="black"/>
<path d="M33.4582 2.33984H21.3735V7.28984H33.4582V2.33984Z" fill="black"/>
</svg>
